<svg version="1.2" xmlns="http://www.w3.org/2000/svg" viewBox="0 0 45 45" width="45" height="45">
	<title>Chess_ϕdt45</title>
	<style>
		.s0 { fill: #000000 } 
		.s1 { fill: #000000;stroke: #000000;stroke-linejoin: round;stroke-width: 1.5 } 
		.s2 { fill: none;stroke: #000000;stroke-linejoin: round;stroke-width: 1.5 } 
		.s3 { fill: none;stroke: #ffffff;stroke-linecap: round;stroke-linejoin: round;stroke-width: 1.5 } 
		.s4 { fill: #000000;stroke: #000000;stroke-linecap: round;stroke-width: 1.5 } 
	</style>
	<g transform="rotate(180,22.5,22.5)">
		<g>
			<path fill-rule="evenodd" class="s0" d="m2.8 16c-1.2 0-2.1-0.9-2.1-2.1 0-1.1 0.9-2 2.1-2 1.1 0 2.1 0.9 2.1 2.1 0 1.1-1 2-2.1 2z"/>
			<path fill-rule="evenodd" class="s0" d="m8.9 13.8c-1.2 0-2.1-1-2.1-2.1 0-1.2 0.9-2.1 2.1-2.1 1.1 0 2.1 0.9 2.1 2.1 0 1.1-1 2.1-2.1 2.1z"/>
			<path fill-rule="evenodd" class="s0" d="m15.4 13c-1.2 0-2.1-0.9-2.1-2.1 0-1.1 0.9-2.1 2.1-2.1 1.1 0 2.1 1 2.1 2.1-0.1 1.2-1 2.1-2.1 2.1z"/>
			<path fill-rule="evenodd" class="s0" d="m21.8 13.8c-1.1 0-2.1-0.9-2.1-2.1 0-1.2 1-2.1 2.1-2.1 1.2 0 2.1 0.9 2.1 2.1 0 1.2-0.9 2.1-2.1 2.1z"/>
			<path fill-rule="evenodd" class="s0" d="m27.9 16.1c-1.1 0-2.1-0.9-2.1-2.1 0-1.2 1-2.1 2.1-2.1 1.2 0 2.1 0.9 2.1 2.1 0 1.2-0.9 2.1-2.1 2.1z"/>
		</g>
		<path fill-rule="evenodd" class="s1" d="m5 24.6c6.5-1.1 16-1.1 20.6 0.1l1.9-9.6-5.7 8.8-0.2-10.8-4 10.4-2.2-11-2.4 11-3.9-10.4-0.2 10.8-5.7-8.8z"/>
		<path fill-rule="evenodd" class="s1" d="m5 24.6c0 1.5 1.2 1.5 1.9 3.1 0.8 1.1 0.8 0.7 0.4 2.6-1.1 0.8-1.1 1.9-1.1 1.9-1.2 1.2 0.3 2 0.3 2 5 0.7 12.6 0.7 17.6 0 0 0 1.1-0.8 0-1.9 0 0 0.4-1.2-0.8-1.9-0.4-1.9-0.4-1.5 0.4-2.7 0.8-1.5 1.9-1.5 1.9-3-6.5-1.2-14.1-1.2-20.6-0.1z"/>
		<path fill-rule="evenodd" class="s2" d="m6.5 34.2q2.2 0.7 4.4 1.1 2.2 0.3 4.4 0.3 2.2 0.1 4.4-0.3 2.3-0.4 4.4-1.1"/>
		<path fill-rule="evenodd" class="s3" d="m6.6 26.9q2.1-0.7 4.3-1.1 2.2-0.4 4.4-0.4 2.3 0.1 4.5 0.4 2.2 0.4 4.3 1.1"/>
		<path fill-rule="evenodd" class="s3" d="m7.7 28.8l15.2 0.1"/>
		<path fill-rule="evenodd" class="s3" d="m6.9 31.1q2.1 0.7 4.2 1 2.1 0.4 4.2 0.4 2.1 0 4.3-0.4 2.1-0.3 4.1-1"/>
		<path fill-rule="evenodd" class="s3" d="m6.2 33.4q2.2 0.8 4.5 1.2 2.3 0.4 4.6 0.4 2.3 0 4.6-0.4 2.4-0.4 4.6-1.2"/>
	</g>
	<path class="s4" d="m35.5 11.7c-1.8 0-3.2 1.4-3.2 3.2 0 0.7 0.3 1.3 0.7 1.8-1.6 0.9-2.6 2.6-2.6 4.4 0 1.6 0.7 3.1 1.9 4-2.4 0.8-5.8 4.3-5.8 10.5h18c0-6.2-3.5-9.7-5.8-10.5 1.1-0.9 1.9-2.4 1.9-4 0-1.8-1.1-3.5-2.6-4.4 0.4-0.5 0.6-1.1 0.6-1.8 0-1.8-1.4-3.2-3.1-3.2z"/>
</svg>